# Blender 4.4.0
# www.blender.org
o Cube
v 0.468661 0.468661 -0.500000
v 0.468661 0.500000 -0.468661
v 0.500000 0.468661 -0.468661
v 0.468661 -0.500000 -0.468661
v 0.468661 -0.468661 -0.500000
v 0.500000 -0.468661 -0.468661
v 0.500000 0.468661 0.468661
v 0.468661 0.500000 0.468661
v 0.468661 0.468661 0.500000
v 0.500000 -0.468661 0.468661
v 0.468661 -0.468661 0.500000
v 0.468661 -0.500000 0.468661
v -0.468661 0.468661 -0.500000
v -0.500000 0.468661 -0.468661
v -0.468661 0.500000 -0.468661
v -0.500000 -0.468661 -0.468661
v -0.468661 -0.468661 -0.500000
v -0.468661 -0.500000 -0.468661
v -0.500000 0.468661 0.468661
v -0.468661 0.468661 0.500000
v -0.468661 0.500000 0.468661
v -0.468661 -0.500000 0.468661
v -0.468661 -0.468661 0.500000
v -0.500000 -0.468661 0.468661
vn -0.0000 -1.0000 -0.0000
vn -1.0000 -0.0000 -0.0000
vn -0.0000 -0.0000 1.0000
vn -0.0000 1.0000 -0.0000
vn 1.0000 -0.0000 -0.0000
vn 0.5774 0.5774 -0.5774
vn 0.5774 -0.5774 -0.5774
vn 0.5774 0.5774 0.5774
vn 0.5774 -0.5774 0.5774
vn -0.5774 0.5774 -0.5774
vn -0.5774 -0.5774 -0.5774
vn -0.5774 0.5774 0.5774
vn -0.5774 -0.5774 0.5774
vn -0.7071 -0.7071 -0.0000
vn -0.0000 -0.7071 -0.7071
vn 0.7071 -0.0000 -0.7071
vn -0.7071 -0.0000 0.7071
vn 0.7071 -0.0000 0.7071
vn -0.7071 -0.0000 -0.7071
vn -0.0000 0.7071 0.7071
vn 0.7071 0.7071 -0.0000
vn -0.0000 -0.7071 0.7071
vn -0.7071 0.7071 -0.0000
vn -0.0000 0.7071 -0.7071
vn 0.7071 -0.7071 -0.0000
vn -0.0000 -0.0000 -1.0000
vt 0.000000 0.000000
vt 1.000000 0.000000
vt 1.000000 1.000000
vt 0.000000 1.000000
s 0
f 18/1/1 4/2/1 12/3/1 22/4/1
f 24/1/2 19/2/2 14/3/2 16/4/2
f 11/1/3 9/2/3 20/3/3 23/4/3
f 2/1/4 15/2/4 21/3/4 8/4/4
f 6/1/5 3/2/5 7/3/5 10/4/5
f 1/1/6 2/2/6 3/3/6
f 4/1/7 5/2/7 6/3/7
f 7/1/8 8/2/8 9/3/8
f 10/1/9 11/2/9 12/3/9
f 13/1/10 14/2/10 15/3/10
f 16/1/11 17/2/11 18/3/11
f 19/1/12 20/2/12 21/3/12
f 22/1/13 23/2/13 24/3/13
f 18/1/14 22/2/14 24/3/14 16/4/14
f 4/1/15 18/2/15 17/3/15 5/4/15
f 3/1/16 6/2/16 5/3/16 1/4/16
f 23/1/17 20/2/17 19/3/17 24/4/17
f 9/1/18 11/2/18 10/3/18 7/4/18
f 13/1/19 17/2/19 16/3/19 14/4/19
f 8/1/20 21/2/20 20/3/20 9/4/20
f 2/1/21 8/2/21 7/3/21 3/4/21
f 22/1/22 12/2/22 11/3/22 23/4/22
f 21/1/23 15/2/23 14/3/23 19/4/23
f 15/1/24 2/2/24 1/3/24 13/4/24
f 12/1/25 4/2/25 6/3/25 10/4/25
f 17/1/26 13/2/26 1/3/26 5/4/26
